<?xml version="1.0" encoding="iso-8859-1"?>
<!-- Generator: Adobe Illustrator 19.0.0, SVG Export Plug-In . SVG Version: 6.00 Build 0)  -->
<svg version="1.1" id="Capa_1" xmlns="http://www.w3.org/2000/svg" xmlns:xlink="http://www.w3.org/1999/xlink" x="0px" y="0px"
	 viewBox="0 0 512 512" style="enable-background:new 0 0 512 512;" xml:space="preserve">
<path style="fill:#FFD78C;" d="M512,256c0,141.385-114.615,256-256,256S0,397.385,0,256S114.615,0,256,0S512,114.615,512,256z"/>
<path style="fill:#D5ECF2;" d="M341.59,59.934L452.066,170.41L138.819,483.658c-47.33-24.411-86.065-63.146-110.476-110.476
	L341.59,59.934z"/>
<path style="fill:#B4D7DC;" d="M388.209,234.267l-67.61-67.61c-7.81-7.811-20.474-7.811-28.284,0L51.406,407.565
	c-0.334,0.334-0.646,0.682-0.973,1.02c-8.282-11.14-15.68-22.975-22.09-35.404L277.734,123.79l0,0l63.857-63.856l28.724,28.724l0,0
	l81.752,81.752L388.209,234.267z"/>
<path style="fill:#3CAF96;" d="M288.872,274.577c-12.269-1.687-16.151-12.891-11.742-20.669l-19.037-19.037
	c-7.779,4.409-18.983,0.526-20.67-11.742c1.871-13.908,16.052-17.1,23.574-9.578c3.92,3.92,4.924,9.647,3.024,14.499l19.93,19.93
	c4.852-1.9,10.579-0.896,14.499,3.024C305.972,258.525,302.78,272.706,288.872,274.577z M163.62,368.31l-19.93-19.93
	c1.9-4.852,0.896-10.579-3.024-14.499c-7.522-7.522-21.702-4.33-23.574,9.578c1.687,12.269,12.891,16.151,20.67,11.742
	l19.037,19.037c-4.409,7.778-0.526,18.982,11.742,20.669c13.908-1.872,17.1-16.052,9.578-23.574
	C174.199,367.414,168.472,366.41,163.62,368.31z"/>
<path style="fill:#96E1BE;" d="M146.273,393.429c5.564,5.564,3.203,16.052-7.084,17.437c-9.074-1.248-11.946-9.535-8.685-15.288
	l-14.08-14.081c-5.753,3.261-14.041,0.39-15.288-8.685c1.384-10.287,11.872-12.648,17.436-7.084c2.9,2.899,3.642,7.135,2.237,10.724
	l14.741,14.741C139.137,389.787,143.373,390.529,146.273,393.429z M315.084,224.617c-2.899-2.9-7.135-3.642-10.724-2.237
	l-14.741-14.741c1.405-3.588,0.663-7.824-2.237-10.724c-5.564-5.564-16.052-3.203-17.436,7.084
	c1.248,9.075,9.535,11.946,15.288,8.685l14.08,14.081c-3.261,5.753-0.389,14.041,8.685,15.288
	C318.287,240.669,320.648,230.181,315.084,224.617z"/>
<path style="fill:#147D73;" d="M265.22,311.623c-15.463-2.125-20.356-16.247-14.8-26.051l-23.993-23.993
	c-9.804,5.557-23.925,0.664-26.051-14.799c2.359-17.529,20.231-21.552,29.712-12.071c4.941,4.94,6.206,12.158,3.811,18.273
	l25.118,25.119c6.115-2.395,13.333-1.13,18.274,3.811C286.773,291.393,282.749,309.265,265.22,311.623z M194.741,342.377
	l-25.119-25.119c3.76-9.604-1.504-21.925-15.857-23.879c-17.517,2.365-21.536,20.231-12.058,29.709
	c5.541,5.542,13.942,6.452,20.443,2.767l23.993,23.993c-3.685,6.501-2.774,14.902,2.767,20.443
	c9.478,9.479,27.344,5.459,29.709-12.058C216.666,343.881,204.345,338.617,194.741,342.377z"/>
<path style="fill:#2D5A5F;" d="M227.276,344.381c-5.245-5.245-6.338-13.052-3.317-19.386l-36.954-36.954
	c-6.334,3.022-14.141,1.928-19.386-3.317c-9.481-9.481-5.457-27.352,12.07-29.711c14.921,2.052,19.993,15.261,15.35,24.993
	l36.954,36.954c9.732-4.643,22.942,0.429,24.993,15.35C254.629,349.838,236.757,353.862,227.276,344.381z"/>
<path style="fill:#AA3C6E;" d="M457.516,172.914l-118.43-118.43c-3.905-3.905-3.905-10.237,0-14.142L376.5,2.929
	c3.905-3.905,10.237-3.905,14.142,0l118.429,118.429c3.905,3.905,3.905,10.237,0,14.142l-37.413,37.413
	C467.752,176.819,461.421,176.819,457.516,172.914z"/>
<path style="fill:#D24B8C;" d="M498.466,184.404l-22.095,22.095c-8.135,8.135-21.325,8.135-29.46,0l-4.419-4.419l-14.73,14.73
	c-4.068,4.068-10.662,4.068-14.73,0L295.19,98.969c-4.068-4.068-4.068-10.663,0-14.73l14.73-14.73l-4.419-4.419
	c-8.135-8.135-8.135-21.325,0-29.46l22.095-22.095c8.135-8.135,21.325-8.135,29.46,0l141.409,141.409
	C506.601,163.079,506.601,176.269,498.466,184.404z"/>
<path style="fill:#AA3C6E;" d="M394.253,153.099l-0.588,0.588c-3.905,3.905-10.237,3.905-14.142,0l-44.484-44.485l-7.442,7.442
	c-4.067,4.068-4.068,10.663,0,14.73L295.19,98.969c-4.068-4.067-4.068-10.663,0-14.73l14.73-14.73l-4.419-4.419
	c-8.135-8.135-8.135-21.325,0-29.46l22.095-22.095c8.135-8.135,21.325-8.135,29.46,0l19.663,19.663
	c-3.425,0.913-6.666,2.692-9.352,5.378L345.272,60.67c-8.135,8.135-8.135,21.325,0,29.46l3.136,3.136
	c0.37,0.278,0.73,0.575,1.066,0.912l44.778,44.778C398.158,142.862,398.158,149.194,394.253,153.099z"/>
<g>
</g>
<g>
</g>
<g>
</g>
<g>
</g>
<g>
</g>
<g>
</g>
<g>
</g>
<g>
</g>
<g>
</g>
<g>
</g>
<g>
</g>
<g>
</g>
<g>
</g>
<g>
</g>
<g>
</g>
</svg>
